<svg viewBox="0 0 1024 1024" version="1.1"
    xmlns="http://www.w3.org/2000/svg" xmlns:xlink="http://www.w3.org/1999/xlink"
    width="200" height="200">
    <path
        d="M513.173333 128A255.061333 255.061333 0 0 0 448 298.666667c0 141.376 114.624 256 256 256a255.36 255.36 0 0 0 189.802667-84.202667c1.450667 13.653333 2.197333 27.498667 2.197333 41.536 0 212.074667-171.925333 384-384 384S128 724.074667 128 512c0-209.706667 168.106667-380.16 376.96-383.936L513.152 128z m-117.824 85.930667l-3.52 1.408C274.645333 262.826667 192 377.770667 192 512c0 176.725333 143.274667 320 320 320 145.408 0 268.16-96.981333 307.114667-229.802667l1.536-5.504-1.6 0.64a319.509333 319.509333 0 0 1-106.496 21.226667L704 618.666667c-176.725333 0-320-143.274667-320-320 0-28.48 3.754667-56.405333 10.944-83.2l0.405333-1.536z"></path>
</svg>