<svg width="256" height="256" xmlns="http://www.w3.org/2000/svg">
 <g>
  <path d="m227.32,73.37l-44.69,-44.68a16,16 0 0 0 -22.63,0l-123.31,123.31a15.86,15.86 0 0 0 -4.69,11.31l0,44.69a16,16 0 0 0 16,16l44.69,0a15.86,15.86 0 0 0 11.31,-4.69l83.67,-83.66l3.48,13.9l-36.8,36.79a8,8 0 0 0 11.31,11.32l40,-40a8,8 0 0 0 2.11,-7.6l-6.9,-27.61l26.45,-26.45a16,16 0 0 0 0,-22.63m-179.32,105.94l28.69,28.69l-28.69,0l0,-28.69zm48,25.38l-44.69,-44.69l84.69,-84.69l44.69,44.69l-84.69,84.69zm96,-96l-44.68,-44.69l24,-24l44.68,44.69l-24,24z" fill="currentColor"/>
  <line stroke-width="10" y2="234" x2="245" y1="234" x1="47" stroke="#000" fill="none"/>
 </g>
</svg>