<svg id="_图层_1" data-name="图层 1" xmlns="http://www.w3.org/2000/svg" viewBox="0 0 454 488.5">
  <path d="m134.5,20c30.58,0,59.34,11.91,80.96,33.54,21.63,21.63,33.54,50.38,33.54,80.96s-11.91,59.34-33.54,80.96c-21.63,21.63-50.38,33.54-80.96,33.54s-59.34-11.91-80.96-33.54c-21.63-21.63-33.54-50.38-33.54-80.96s11.91-59.34,33.54-80.96c21.63-21.63,50.38-33.54,80.96-33.54m0-20C60.22,0,0,60.22,0,134.5s60.22,134.5,134.5,134.5,134.5-60.22,134.5-134.5S208.78,0,134.5,0h0Z"/>
  <path d="m134.5,240c30.58,0,59.34,11.91,80.96,33.54,21.63,21.63,33.54,50.38,33.54,80.96s-11.91,59.34-33.54,80.96c-21.63,21.63-50.38,33.54-80.96,33.54s-59.34-11.91-80.96-33.54c-21.63-21.63-33.54-50.38-33.54-80.96s11.91-59.34,33.54-80.96c21.63-21.63,50.38-33.54,80.96-33.54m0-20C60.22,220,0,280.22,0,354.5s60.22,134.5,134.5,134.5,134.5-60.22,134.5-134.5-60.22-134.5-134.5-134.5h0Z"/>
  <path d="m319.5,129.75c30.58,0,59.34,11.91,80.96,33.54,21.63,21.63,33.54,50.38,33.54,80.96s-11.91,59.34-33.54,80.96c-21.63,21.63-50.38,33.54-80.96,33.54s-59.34-11.91-80.96-33.54c-21.63-21.63-33.54-50.38-33.54-80.96s11.91-59.34,33.54-80.96c21.63-21.63,50.38-33.54,80.96-33.54m0-20c-74.28,0-134.5,60.22-134.5,134.5s60.22,134.5,134.5,134.5,134.5-60.22,134.5-134.5-60.22-134.5-134.5-134.5h0Z"/>
</svg>