<?xml version="1.0" encoding="UTF-8"?>
<svg id="_图层_1" data-name="图层 1" xmlns="http://www.w3.org/2000/svg" viewBox="0 0 500 500">
  <path d="m250,20c31.06,0,61.18,6.08,89.52,18.07,27.39,11.58,51.99,28.17,73.11,49.3,21.13,21.13,37.72,45.73,49.3,73.11,11.99,28.34,18.07,58.46,18.07,89.52s-6.08,61.18-18.07,89.52c-11.58,27.39-28.17,51.99-49.3,73.11s-45.73,37.72-73.11,49.3c-28.34,11.99-58.46,18.07-89.52,18.07s-61.18-6.08-89.52-18.07c-27.39-11.58-51.99-28.17-73.11-49.3-21.13-21.13-37.72-45.73-49.3-73.11-11.99-28.34-18.07-58.46-18.07-89.52s6.08-61.18,18.07-89.52c11.58-27.39,28.17-51.99,49.3-73.11,21.13-21.13,45.73-37.72,73.11-49.3,28.34-11.99,58.46-18.07,89.52-18.07m0-20C111.93,0,0,111.93,0,250s111.93,250,250,250,250-111.93,250-250S388.07,0,250,0h0Z"/>
  <text transform="translate(193.93 213.75) scale(1.35 1)" style="font-family: SimHei, SimHei; font-size: 161.58px;"><tspan x="0" y="0">G</tspan></text>
  <text transform="translate(145.34 570.94) scale(1.24 1)" style="font-family: SimHei, SimHei; font-size: 327.63px;"><tspan x="0" y="0">~</tspan></text>
</svg>