<?xml version="1.0" encoding="UTF-8"?>
<svg id="_图层_1" data-name="图层 1" xmlns="http://www.w3.org/2000/svg" viewBox="0 0 278 500">
  <path d="m139,21c31.79,0,61.67,12.38,84.15,34.85,22.48,22.48,34.85,52.36,34.85,84.15s-12.38,61.67-34.85,84.15c-22.48,22.48-52.36,34.85-84.15,34.85s-61.67-12.38-84.15-34.85c-22.48-22.48-34.85-52.36-34.85-84.15s12.38-61.67,34.85-84.15c22.48-22.48,52.36-34.85,84.15-34.85m0-20C62.23,1,0,63.23,0,140s62.23,139,139,139,139-62.23,139-139S215.77,1,139,1h0Z"/>
  <path d="m139,242c31.79,0,61.67,12.38,84.15,34.85,22.48,22.48,34.85,52.36,34.85,84.15s-12.38,61.67-34.85,84.15c-22.48,22.48-52.36,34.85-84.15,34.85s-61.67-12.38-84.15-34.85c-22.48-22.48-34.85-52.36-34.85-84.15s12.38-61.67,34.85-84.15c22.48-22.48,52.36-34.85,84.15-34.85m0-20C62.23,222,0,284.23,0,361s62.23,139,139,139,139-62.23,139-139-62.23-139-139-139h0Z"/>
</svg>